<?xml version="1.0" standalone="no"?>
<!DOCTYPE svg PUBLIC "-//W3C//DTD SVG 20010904//EN"
 "http://www.w3.org/TR/2001/REC-SVG-20010904/DTD/svg10.dtd">
<svg version="1.0" xmlns="http://www.w3.org/2000/svg"
 width="512.000000pt" height="512.000000pt" viewBox="0 0 512.000000 512.000000"
 preserveAspectRatio="xMidYMid meet">

<g transform="translate(0.000000,512.000000) scale(0.100000,-0.100000)"
fill="#000000" stroke="none">
<path d="M1492 4103 c-21 -8 -58 -98 -106 -263 -73 -252 -108 -583 -87 -819
20 -228 65 -362 155 -459 36 -39 163 -144 194 -161 28 -15 28 -35 -2 -74 -32
-44 -70 -121 -97 -198 -71 -207 -66 -414 22 -934 4 -27 13 -81 19 -120 6 -38
16 -95 23 -125 l13 -55 135 -3 c172 -4 179 -2 179 45 0 34 -16 114 -40 203
-69 250 -91 373 -71 393 9 9 14 9 21 -3 5 -8 10 -23 10 -32 0 -10 39 -98 87
-195 47 -98 94 -202 103 -231 16 -50 18 -53 33 -37 10 9 17 21 17 26 0 17 99
216 156 312 30 50 59 109 64 130 14 48 36 48 43 -1 9 -52 0 -103 -34 -202 -61
-174 -98 -347 -84 -390 6 -20 12 -20 147 -18 l140 3 15 45 c8 25 23 64 34 88
80 176 111 289 112 415 1 63 5 87 14 87 27 0 63 -116 63 -205 0 -66 -24 -181
-67 -322 -14 -45 -23 -89 -20 -97 13 -34 591 -14 742 25 179 47 288 119 375
246 150 222 127 491 -59 673 -111 109 -227 155 -389 155 -101 0 -104 -1 -128
-28 -24 -28 -30 -68 -18 -115 10 -34 54 -52 132 -52 112 0 209 -43 281 -126
54 -61 74 -118 75 -209 0 -70 -4 -87 -30 -134 -54 -101 -152 -177 -264 -208
-63 -17 -298 -46 -317 -39 -17 7 -15 39 7 141 18 84 -5 306 -39 373 -5 10 -22
43 -37 75 -18 37 -55 84 -100 127 -66 65 -73 75 -88 137 -9 38 -28 105 -42
150 -14 46 -23 87 -20 92 3 4 31 11 63 15 126 14 225 65 329 170 72 73 130
149 174 231 18 33 41 74 50 90 37 67 93 216 134 355 46 157 80 417 58 448 -22
32 -365 40 -488 11 -27 -6 -95 -27 -152 -46 -101 -34 -104 -34 -130 -17 -114
76 -286 132 -490 160 -103 14 -140 14 -230 5 -191 -20 -342 -69 -465 -152 -33
-22 -66 -38 -74 -35 -24 9 -17 195 11 306 32 126 42 150 62 150 21 0 143 -91
169 -126 32 -44 46 -55 64 -50 9 3 45 10 81 16 127 22 124 11 29 107 -139 141
-403 297 -467 276z m489 -756 c33 -22 59 -70 46 -84 -4 -4 -22 -1 -41 5 -18 7
-70 13 -114 13 -95 1 -106 14 -50 61 43 36 110 38 159 5z m1394 -54 c-6 -54
-20 -112 -44 -191 -16 -53 -81 -179 -101 -197 -21 -19 -40 -13 -40 14 0 10
-11 40 -25 67 -14 27 -25 52 -25 57 0 13 -81 140 -108 169 -21 23 -23 30 -12
43 39 47 182 93 289 94 l73 1 -7 -57z m-1035 -65 c24 -13 46 -28 48 -35 2 -6
-23 -28 -54 -48 -54 -35 -58 -36 -71 -19 -7 10 -13 24 -13 31 0 8 -7 25 -16
38 -35 53 28 72 106 33z m473 -129 c45 -24 77 -71 77 -113 0 -33 -8 -33 -58 4
-23 16 -66 38 -97 48 -73 25 -83 35 -54 56 27 19 100 21 132 5z m-529 -141 c8
-18 21 -40 28 -49 19 -23 73 -49 102 -49 34 0 42 -17 18 -43 -11 -12 -32 -42
-47 -67 -50 -82 -130 -181 -161 -201 -37 -23 -91 -25 -120 -4 -40 28 -55 78
-59 203 -2 64 -7 139 -11 165 l-6 49 73 -7 c62 -5 80 -3 109 13 49 27 58 26
74 -10z"/>
</g>
</svg>
